<svg width="32" height="32" viewBox="0 0 32 32" fill="none" xmlns="http://www.w3.org/2000/svg">
<path d="M23.6504 13.8225C22.187 13.6469 20.3466 14.1811 18.7085 15.3904C18.6136 15.4622 18.5237 15.5339 18.4313 15.6081C17.7755 13.2291 16.6743 10.9934 15.1849 9.01716C15.1254 8.9469 15.0434 8.89899 14.9525 8.88143C14.8616 8.86388 14.7673 8.87774 14.6855 8.92071L14.5656 8.99738C14.4832 9.05179 14.4058 9.10867 14.3309 9.16802C14.1062 9.35845 14.3309 9.66265 14.3309 9.66265C16.1339 12.2199 17.1902 15.8109 17.1727 19.8297C14.9252 18.1999 12.428 17.4802 10.4303 17.7176C10.1231 17.7795 10.1431 18.1529 10.4528 18.1381C12.5804 17.9674 15.1675 19.3944 17.0728 21.8972C16.8256 24.4291 16.1916 26.9091 15.1924 29.2523C14.9727 29.747 15.532 29.8855 15.612 29.9003C16.0992 29.9685 16.5907 30.0016 17.0828 29.9992C17.5128 30.0071 17.9424 29.9681 18.3639 29.883C18.4929 29.8549 18.6127 29.7948 18.7119 29.7083C18.811 29.6218 18.8863 29.5117 18.9307 29.3884C19.1615 28.2173 19.3241 27.034 19.4177 25.8444C19.6633 22.8617 19.4478 19.8593 18.7784 16.9411C20.1668 15.0788 22.0722 14.0154 23.6354 14.139C23.8652 14.1415 23.9276 13.8571 23.6504 13.8225Z" fill="#0077C0"/>
<path d="M20.2767 16.8394C20.2767 16.8666 20.3042 16.8939 20.3142 16.9211C20.4415 16.7207 20.5639 16.6737 20.6688 16.6861C20.8186 16.6861 20.8636 16.9037 20.7837 17.1412C20.7837 17.1412 21.0334 17.2228 21.1008 17.4008C21.1183 17.4528 21.0758 17.6679 20.7562 17.6482C20.7188 17.6506 20.6812 17.6506 20.6438 17.6482C20.7662 17.8757 20.7362 18.0191 20.6788 18.0958C20.5889 18.217 20.3891 18.1477 20.2243 17.9598C20.1721 18.0066 20.111 18.0426 20.0445 18.0656C19.978 18.0885 19.9075 18.0979 19.8372 18.0933C19.7823 18.0785 19.6175 17.9301 19.7923 17.663C19.8139 17.6297 19.8373 17.5975 19.8622 17.5665C19.5925 17.5542 19.4826 17.4528 19.4452 17.3637C19.3877 17.2253 19.55 17.0892 19.7998 17.0497C19.7856 16.9812 19.7856 16.9107 19.7998 16.8422C19.814 16.7738 19.842 16.7089 19.8822 16.6515C19.9246 16.6144 20.1394 16.555 20.2767 16.8394Z" fill="#F49AC1"/>
<path d="M8.73926 18.758C8.77422 18.7803 8.80668 18.805 8.83915 18.8298C8.83915 18.4984 8.974 18.3524 9.08887 18.2956C9.27616 18.2016 9.47843 18.4167 9.55834 18.7556C9.65415 18.7317 9.75378 18.7269 9.8515 18.7413C9.94921 18.7557 10.0431 18.7891 10.1277 18.8397C10.1851 18.8866 10.29 19.1785 9.90295 19.3961C9.85815 19.4226 9.8114 19.4458 9.76311 19.4654C10.0753 19.6508 10.1427 19.8437 10.1302 19.9773C10.1127 20.185 9.82304 20.2469 9.48842 20.138C9.48842 20.138 9.37355 20.4991 9.12133 20.5758C9.04891 20.5981 8.74176 20.5387 8.75424 20.096C8.75424 20.0391 8.75424 19.9847 8.76923 19.9303C8.4396 20.1059 8.23483 20.0639 8.12246 19.9822C7.95265 19.8611 8.05004 19.5841 8.31724 19.3541C8.25089 19.2823 8.19988 19.198 8.16727 19.1062C8.13465 19.0144 8.12111 18.917 8.12745 18.8199C8.14992 18.7457 8.36218 18.5181 8.73926 18.758Z" fill="#DC6482"/>
<path d="M26.168 8.70028C26.1455 8.66071 26.1181 8.62361 26.0906 8.58404C26.4677 8.58404 26.6375 8.45791 26.7074 8.33673C26.8223 8.13393 26.59 7.89651 26.208 7.79264C26.2407 7.6881 26.2516 7.57806 26.24 7.46921C26.2284 7.36036 26.1946 7.25499 26.1405 7.15952C26.0881 7.09274 25.7635 6.96167 25.4988 7.3821C25.4688 7.43156 25.4388 7.48103 25.4139 7.53296C25.2166 7.17683 25.0043 7.09522 24.852 7.10264C24.6173 7.10264 24.5323 7.43156 24.6422 7.80748C24.6422 7.80748 24.2277 7.91877 24.1278 8.19576C24.1003 8.2749 24.1553 8.61867 24.6572 8.62361C24.7196 8.62731 24.7821 8.62731 24.8445 8.62361C24.6297 8.98222 24.6672 9.21222 24.7546 9.33835C24.8845 9.53373 25.2041 9.43975 25.4713 9.15287C25.5492 9.2319 25.6425 9.29455 25.7455 9.33704C25.8485 9.37954 25.9591 9.40101 26.0706 9.40018C26.153 9.35566 26.4227 9.13061 26.168 8.70028Z" fill="#DC6482"/>
<path d="M9.96284 11.3971C9.94287 11.3624 9.92039 11.3328 9.89792 11.2981C10.2101 11.2981 10.3524 11.1943 10.4098 11.0879C10.5047 10.9173 10.31 10.7194 9.99531 10.6329C10.0225 10.5458 10.0315 10.4542 10.0216 10.3636C10.0117 10.273 9.98323 10.1854 9.93787 10.1061C9.89542 10.0517 9.62323 9.94039 9.40347 10.2916C9.3785 10.3311 9.35353 10.3732 9.33105 10.4177C9.16874 10.1209 8.99144 10.0542 8.86408 10.0591C8.6668 10.0591 8.59938 10.3336 8.68928 10.6452C8.68928 10.6452 8.34467 10.7392 8.26226 10.9692C8.23729 11.0335 8.28473 11.3204 8.70176 11.3253C8.75421 11.3253 8.80415 11.3253 8.85659 11.3253C8.67679 11.6246 8.71175 11.82 8.78167 11.9214C8.89155 12.0846 9.15625 12.0055 9.381 11.7656C9.44647 11.83 9.52452 11.8806 9.61039 11.9142C9.69627 11.9478 9.78815 11.9637 9.88044 11.9609C9.95036 11.9412 10.1726 11.7532 9.96284 11.3971Z" fill="#DC6482"/>
<path d="M20.165 6.42284L20.4422 5.86144C20.4798 5.801 20.5296 5.74889 20.5884 5.70834C20.6473 5.66779 20.7139 5.63968 20.7842 5.62576C20.8545 5.61184 20.9269 5.6124 20.997 5.62742C21.067 5.64244 21.1332 5.67159 21.1914 5.71305C21.4411 5.96036 22.9394 8.77232 24.4377 9.67007L23.5587 10.1845L22.6048 8.50275C22.6048 8.50275 21.0266 8.87372 20.7394 8.27027C20.4522 7.66683 20.9891 6.56381 20.9891 6.56381C20.9115 6.56506 20.8341 6.55506 20.7594 6.53413L20.165 6.42284Z" fill="#03BFD7"/>
<path d="M10.876 7.14695L10.5863 6.56576C10.5474 6.49993 10.4947 6.44308 10.4319 6.399C10.369 6.35491 10.2974 6.3246 10.2218 6.31009C10.1462 6.29558 10.0683 6.2972 9.99336 6.31485C9.91842 6.3325 9.84815 6.36576 9.78722 6.41242C9.52251 6.65974 7.96677 9.59288 6.41602 10.5129L7.33498 11.0471L8.33385 9.29857C8.33385 9.29857 9.97201 9.68933 10.2867 9.06857C10.6013 8.44781 10.022 7.29533 10.022 7.29533C10.1064 7.29743 10.1906 7.28658 10.2717 7.26318L10.876 7.14695Z" fill="#39B54A"/>
<path d="M11.5637 14.9386C11.5939 14.9712 11.6157 15.0106 11.6272 15.0534C11.6386 15.0962 11.6393 15.1412 11.6292 15.1843C11.6191 15.2274 11.5985 15.2675 11.5693 15.3009C11.54 15.3344 11.5029 15.3603 11.4613 15.3764C11.4613 15.3764 11.7709 15.3764 11.7809 15.6509C11.7909 15.9254 11.706 15.9625 11.4613 15.965C11.5043 15.9757 11.5431 15.9991 11.5725 16.032C11.6019 16.065 11.6205 16.1059 11.6259 16.1496C11.6313 16.1932 11.6233 16.2375 11.6028 16.2765C11.5823 16.3155 11.5504 16.3474 11.5112 16.3681C11.2141 16.6154 11.1292 16.4473 11.0992 16.4151C11.1102 16.4508 11.1129 16.4884 11.1071 16.5252C11.1014 16.5621 11.0873 16.5971 11.0659 16.6278C11.0445 16.6585 11.0164 16.684 10.9837 16.7024C10.951 16.7208 10.9145 16.7317 10.8769 16.7341C10.5748 16.791 10.5149 16.608 10.5198 16.5289C10.5198 16.5289 10.3176 16.8899 10.0803 16.7094C10.0483 16.6906 10.0206 16.6654 9.99902 16.6354C9.97741 16.6055 9.96236 16.5713 9.95484 16.5352C9.94732 16.4991 9.94748 16.4619 9.95534 16.4259C9.96319 16.3899 9.97855 16.3559 10.0004 16.3261C10.0004 16.3261 9.73823 16.5734 9.56592 16.3112C9.39362 16.0491 9.71076 15.871 9.71076 15.871C9.71076 15.871 9.35866 15.9353 9.35866 15.6237C9.35689 15.5824 9.36422 15.5413 9.38015 15.5031C9.39607 15.4649 9.4202 15.4306 9.45086 15.4026C9.48151 15.3746 9.51797 15.3535 9.55768 15.3409C9.59738 15.3283 9.6394 15.3243 9.68079 15.3294C9.63985 15.3082 9.60468 15.2775 9.57828 15.2399C9.55188 15.2023 9.53502 15.159 9.52914 15.1136C9.52325 15.0682 9.52852 15.0221 9.54449 14.9792C9.56046 14.9362 9.58666 14.8977 9.62086 14.8669C9.87058 14.6196 10.0404 14.8669 10.0404 14.8669C10.0404 14.8669 9.89555 14.6196 10.2452 14.4885C10.5948 14.3575 10.6247 14.7358 10.6247 14.7358C10.6247 14.7358 10.7446 14.3871 11.0393 14.496C11.3339 14.6048 11.1566 14.9386 11.1566 14.9386C11.1566 14.9386 11.4238 14.7358 11.5637 14.9386Z" fill="#D7DF23"/>
<path d="M8.38978 6.68237C8.41397 6.70973 8.43118 6.74243 8.43998 6.77774C8.44878 6.81304 8.4489 6.84992 8.44034 6.88529C8.43178 6.92065 8.41479 6.95346 8.39078 6.98098C8.36678 7.0085 8.33647 7.02992 8.30238 7.04345C8.30238 7.04345 8.5521 7.04345 8.56958 7.27098C8.58706 7.4985 8.50466 7.51829 8.30238 7.53065C8.30238 7.53065 8.59206 7.64689 8.34484 7.86205C8.09761 8.07722 8.03019 7.92636 8.00522 7.90162C8.01437 7.93108 8.01662 7.96222 8.0118 7.99267C8.00699 8.02312 7.99522 8.05208 7.97741 8.07735C7.95959 8.10263 7.9362 8.12355 7.90899 8.13852C7.88179 8.1535 7.8515 8.16213 7.82043 8.16378C7.57071 8.21077 7.52326 8.05991 7.52576 7.99313C7.52576 7.99313 7.35845 8.29238 7.16367 8.14399C7.13742 8.12799 7.11479 8.10681 7.09716 8.08177C7.07953 8.05673 7.0673 8.02837 7.06121 7.99845C7.05512 7.96853 7.05531 7.93768 7.06176 7.90784C7.06822 7.87799 7.08081 7.84978 7.09874 7.82496C7.09874 7.82496 6.88148 8.02281 6.73915 7.82496C6.59681 7.62711 6.85901 7.46141 6.85901 7.46141C6.85901 7.46141 6.56934 7.51334 6.56934 7.24624C6.56925 7.21226 6.57624 7.17862 6.58987 7.14742C6.6035 7.11623 6.62347 7.08816 6.64855 7.06495C6.67362 7.04174 6.70325 7.0239 6.7356 7.01254C6.76794 7.00119 6.8023 6.99655 6.83654 6.99893C6.80246 6.9818 6.77312 6.95669 6.75106 6.92578C6.72901 6.89487 6.71491 6.8591 6.70998 6.82156C6.70506 6.78403 6.70947 6.74588 6.72282 6.71041C6.73617 6.67495 6.75806 6.64325 6.78659 6.61807C7.00135 6.40291 7.1312 6.61807 7.1312 6.61807C7.1312 6.61807 7.01134 6.42269 7.30101 6.30398C7.59069 6.18527 7.61316 6.50183 7.61316 6.50183C7.61316 6.50183 7.71305 6.25452 7.95028 6.33118C8.18751 6.40785 8.04767 6.69721 8.04767 6.69721C8.04767 6.69721 8.27242 6.5142 8.38978 6.68237Z" fill="#F49AC1"/>
<path d="M26.4934 12.5822C26.5237 12.612 26.5459 12.649 26.5577 12.6896C26.5695 12.7303 26.5705 12.7733 26.5608 12.8145C26.551 12.8557 26.5307 12.8937 26.5019 12.9249C26.473 12.9561 26.4366 12.9795 26.396 12.9927C26.396 12.9927 26.6857 12.9927 26.6957 13.2401C26.7057 13.4874 26.6257 13.5319 26.396 13.5344C26.4364 13.5438 26.473 13.5652 26.5008 13.5958C26.5287 13.6263 26.5465 13.6645 26.5519 13.7053C26.5573 13.746 26.5501 13.7875 26.5312 13.8241C26.5122 13.8607 26.4825 13.8908 26.4459 13.9103C26.1663 14.1576 26.0889 13.9845 26.0589 13.9548C26.0691 13.988 26.0717 14.0231 26.0663 14.0574C26.0609 14.0917 26.0477 14.1243 26.0278 14.1529C26.0079 14.1814 25.9816 14.2051 25.9511 14.2222C25.9206 14.2393 25.8866 14.2493 25.8516 14.2516C25.5694 14.3035 25.5145 14.1353 25.517 14.0611C25.517 14.0611 25.3297 14.3975 25.1075 14.2293C25.0775 14.2118 25.0515 14.1882 25.0313 14.1602C25.011 14.1321 24.9969 14.1002 24.9898 14.0664C24.9828 14.0327 24.9829 13.9978 24.9903 13.9641C24.9976 13.9304 25.012 13.8986 25.0325 13.8707C25.0325 13.8707 24.7828 14.0933 24.628 13.8707C24.4732 13.6481 24.7628 13.4577 24.7628 13.4577C24.7628 13.4577 24.4357 13.517 24.4357 13.2104C24.4343 13.1718 24.4414 13.1334 24.4565 13.0978C24.4715 13.0622 24.4942 13.0303 24.5229 13.0042C24.5516 12.9781 24.5857 12.9585 24.6228 12.9467C24.6599 12.9349 24.6992 12.9312 24.7379 12.9359C24.6997 12.9163 24.6668 12.8878 24.642 12.8529C24.6173 12.8181 24.6015 12.7778 24.5958 12.7355C24.5902 12.6933 24.5949 12.6503 24.6097 12.6103C24.6244 12.5702 24.6487 12.5343 24.6804 12.5055C24.9302 12.2582 25.07 12.5055 25.07 12.5055C25.07 12.5055 24.9351 12.2854 25.2623 12.1519C25.5894 12.0183 25.6144 12.3769 25.6144 12.3769C25.6144 12.3769 25.7268 12.0826 25.999 12.1815C26.2711 12.2805 26.1063 12.5946 26.1063 12.5946C26.1063 12.5946 26.361 12.3942 26.4934 12.5822Z" fill="#F49AC1"/>
<path d="M24.3297 16.9006C24.3424 16.9172 24.351 16.9364 24.3549 16.9569C24.3589 16.9773 24.3581 16.9983 24.3525 17.0184C24.347 17.0385 24.3369 17.057 24.3229 17.0726C24.309 17.0882 24.2917 17.1004 24.2723 17.1083C24.2723 17.1083 24.4221 17.1083 24.4296 17.2443C24.4371 17.3804 24.3921 17.3977 24.2723 17.4001C24.2723 17.4001 24.4421 17.4694 24.2972 17.598C24.1524 17.7266 24.1099 17.6376 24.0925 17.6227C24.0983 17.64 24.0999 17.6585 24.0974 17.6765C24.0948 17.6946 24.0881 17.7118 24.0777 17.7269C24.0673 17.742 24.0535 17.7545 24.0375 17.7634C24.0214 17.7724 24.0035 17.7775 23.9851 17.7785C23.8353 17.8033 23.8053 17.7142 23.8078 17.6771C23.8078 17.6771 23.7079 17.8552 23.593 17.7662C23.5773 17.7566 23.5638 17.744 23.5532 17.7291C23.5426 17.7142 23.5353 17.6973 23.5315 17.6795C23.5278 17.6617 23.5278 17.6432 23.5315 17.6254C23.5352 17.6076 23.5425 17.5907 23.5531 17.5757C23.5531 17.5757 23.4257 17.692 23.3408 17.5757C23.2559 17.4595 23.4107 17.3581 23.4107 17.3581C23.4107 17.3581 23.2384 17.3878 23.2384 17.2295C23.2375 17.2091 23.2411 17.1888 23.249 17.1699C23.2569 17.1511 23.2689 17.1342 23.2842 17.1205C23.2995 17.1068 23.3176 17.0966 23.3373 17.0906C23.3571 17.0847 23.3779 17.0831 23.3982 17.086C23.3778 17.0759 23.3602 17.0609 23.347 17.0425C23.3337 17.024 23.3252 17.0026 23.3223 16.9802C23.3193 16.9577 23.322 16.9349 23.33 16.9137C23.338 16.8925 23.3512 16.8735 23.3683 16.8585C23.4956 16.7299 23.5731 16.8585 23.5731 16.8585C23.5731 16.8585 23.5006 16.7423 23.6729 16.673C23.8452 16.6038 23.8602 16.7917 23.8602 16.7917C23.8602 16.7917 23.9202 16.6359 24.06 16.6879C24.1998 16.7398 24.1174 16.9055 24.1174 16.9055C24.1174 16.9055 24.2723 16.8016 24.3297 16.9006Z" fill="#DC6482"/>
<path d="M18.4089 4.43835C18.4286 4.46096 18.4425 4.48788 18.4496 4.51688C18.4567 4.54588 18.4567 4.57613 18.4496 4.60513C18.4425 4.63413 18.4286 4.66105 18.4089 4.68365C18.3892 4.70626 18.3644 4.7239 18.3365 4.73513C18.3365 4.73513 18.5463 4.73513 18.5563 4.92061C18.5663 5.1061 18.5038 5.1333 18.3365 5.13577C18.3653 5.14317 18.3912 5.15886 18.4109 5.18087C18.4306 5.20287 18.4433 5.2302 18.4473 5.25936C18.4514 5.28852 18.4465 5.31821 18.4335 5.34464C18.4204 5.37108 18.3997 5.39307 18.374 5.40782C18.1717 5.58341 18.1243 5.46223 18.0918 5.44244C18.0994 5.46648 18.1014 5.49193 18.0976 5.51685C18.0939 5.54178 18.0844 5.56551 18.0699 5.58626C18.0555 5.60701 18.0364 5.62422 18.0143 5.63658C17.9921 5.64895 17.9674 5.65614 17.942 5.65761C17.7372 5.6947 17.6922 5.57105 17.6922 5.51664C17.6922 5.51664 17.5549 5.76395 17.3926 5.64277C17.3709 5.62973 17.3522 5.61242 17.3375 5.59191C17.3229 5.57139 17.3127 5.54811 17.3075 5.52352C17.3024 5.49893 17.3024 5.47355 17.3076 5.44897C17.3128 5.42438 17.323 5.40112 17.3376 5.38062C17.3376 5.38062 17.1603 5.54137 17.043 5.38062C16.9256 5.21986 17.1429 5.08137 17.1429 5.08137C17.1429 5.08137 16.9056 5.12341 16.9056 4.90577C16.9039 4.87772 16.9085 4.84965 16.919 4.82355C16.9295 4.79746 16.9458 4.77399 16.9665 4.75485C16.9873 4.7357 17.0121 4.72134 17.0391 4.7128C17.0661 4.70426 17.0948 4.70175 17.1229 4.70545C17.0951 4.69101 17.0712 4.67012 17.0533 4.64458C17.0354 4.61903 17.024 4.58958 17.0201 4.55874C17.0162 4.52789 17.0199 4.49656 17.0308 4.46742C17.0417 4.43827 17.0596 4.41218 17.0829 4.39136C17.2602 4.21577 17.3651 4.39136 17.3651 4.39136C17.3651 4.39136 17.2677 4.23061 17.505 4.13168C17.7422 4.03276 17.7547 4.29491 17.7547 4.29491C17.7635 4.26758 17.7776 4.24225 17.7963 4.22036C17.815 4.19847 17.8379 4.18046 17.8637 4.16736C17.8894 4.15426 17.9176 4.14633 17.9464 4.14403C17.9753 4.14172 18.0043 4.14509 18.0319 4.15394C18.2291 4.22813 18.1118 4.45566 18.1118 4.45566C18.1118 4.45566 18.3115 4.29986 18.4089 4.43835Z" fill="#FFC233"/>
<path d="M14.9646 5.85889C15.8062 7.55051 14.9197 8.22815 14.0432 8.80439C14.0432 8.80439 13.3115 7.2933 14.9646 5.85889Z" fill="#D7DF23"/>
<path d="M17.028 9.95865C15.5821 9.57284 15.637 8.7023 15.7469 7.89111C15.7469 7.89111 17.028 8.24724 17.028 9.95865Z" fill="#39B54A"/>
<path d="M19.8942 13.8927C19.4722 14.7064 18.9503 14.558 18.4658 14.3873C18.4658 14.3873 18.8504 13.6677 19.8942 13.8927Z" fill="#39B54A"/>
<path d="M5.64367 14.2272C5.21914 15.0433 4.69723 14.8949 4.21777 14.7218C4.21777 14.7218 4.59984 14.0021 5.64367 14.2272Z" fill="#8DC63F"/>
<path d="M13.1839 9.24072C13.9331 9.7675 13.7233 10.2597 13.4886 10.7073C13.4886 10.7073 12.8193 10.2349 13.1839 9.24072Z" fill="#8DC63F"/>
<path d="M9.86941 17.5682C9.09278 18.0628 8.71321 17.6795 8.37109 17.2937C8.37109 17.2937 9.06531 16.8609 9.86941 17.5682Z" fill="#8DC63F"/>
<path d="M8.63477 13.1503C9.57371 12.4083 10.1655 12.8065 10.6924 13.2022C10.6924 13.2022 9.8484 13.8452 8.63477 13.1503Z" fill="#39B54A"/>
<path d="M12.1712 18.9366C11.402 18.4271 11.0175 18.808 10.6729 19.1839C10.6729 19.1839 11.3621 19.6291 12.1712 18.9366Z" fill="#D7DF23"/>
<path d="M16.0339 4.59193C15.6118 5.40559 15.0874 5.2572 14.6055 5.08656C14.6055 5.08656 14.99 4.36687 16.0339 4.59193Z" fill="#8DC63F"/>
<path d="M27.1855 10.0891C26.2265 11.9365 25.0454 11.6002 23.9541 11.2144C23.9541 11.2144 24.8231 9.58457 27.1855 10.0891Z" fill="#D7DF23"/>
<path d="M21.7942 5.62744C21.4671 4.68022 21.9815 4.39087 22.481 4.14355C22.481 4.14355 22.7607 4.98689 21.7942 5.62744Z" fill="#8DC63F"/>
<path d="M23.297 18.121C21.0495 17.5595 20.4477 18.7838 19.9707 19.9709C19.9707 19.9709 21.9859 20.4506 23.297 18.121Z" fill="#8DC63F"/>
<path d="M14.3417 15.5708C14.484 14.6706 14.9759 14.0745 15.4829 14.2798C15.9898 14.4851 16.6041 15.2691 16.0273 17.8139C15.185 17.8023 14.3524 17.6346 13.5725 17.3193C12.5162 16.8247 12.7385 16.0432 12.8783 15.9022C13.3603 15.4076 14.3417 15.5807 14.3417 15.5807" fill="#FFC233"/>
<path d="M12.036 3.76861C12.478 2.69527 13.2621 2.09924 13.8289 2.49989C14.3958 2.90054 14.9277 4.0456 13.4693 7.03315C13.4693 7.03315 11.7213 6.62013 10.5726 5.70013C9.4239 4.78012 9.91585 3.88237 10.1281 3.74635C10.8773 3.28387 12.036 3.76861 12.036 3.76861Z" fill="#F49AC1"/>
<path d="M4.70533 12.0485C4.04607 12.5728 3.79635 13.2331 4.18342 13.5448C4.57048 13.8564 5.49444 13.9825 7.29241 12.3626C6.89523 11.6963 6.3761 11.1092 5.76164 10.6314C4.87514 10.0205 4.34823 10.5547 4.29829 10.7279C4.12349 11.3313 4.70533 12.0386 4.70533 12.0386" fill="#DC6482"/>
<path d="M6.14994 17.1922C6.01759 18.0578 6.28479 18.7428 6.79671 18.7032C7.30864 18.6637 8.07777 18.1221 8.29003 15.6242C7.53467 15.3956 6.74225 15.3117 5.95516 15.3769C4.87388 15.5253 4.84891 16.3018 4.93132 16.47C5.22099 17.0537 6.14495 17.1872 6.14495 17.1872" fill="#F15A22"/>
<path d="M21.9729 15.7309C22.1951 15.2165 22.5747 14.9345 22.8469 15.1324C23.1191 15.3303 23.3638 15.8867 22.6371 17.3137C22.138 17.1808 21.6687 16.956 21.2537 16.6509C20.6993 16.1983 20.9491 15.768 21.0539 15.7062C21.4135 15.4861 21.9729 15.7309 21.9729 15.7309Z" fill="#D7DF23"/>
<path d="M24.2129 5.33609C24.9196 5.33609 25.4316 5.63533 25.3342 6.04093C25.2368 6.44652 24.7099 6.99803 22.6946 6.86448C22.6065 6.22927 22.6396 5.58332 22.792 4.96017C23.0417 4.10941 23.671 4.18608 23.7909 4.27264C24.2204 4.57683 24.2079 5.33609 24.2079 5.33609" fill="#F15A22"/>
<path d="M23.1846 12.2589C23.644 12.4444 23.9012 12.7733 23.7289 13.0009C23.5566 13.2284 23.0672 13.4634 21.7861 12.8525C21.8969 12.4147 22.0891 12.0012 22.353 11.6332C22.7475 11.1386 23.1346 11.3538 23.192 11.4453C23.3918 11.7544 23.192 12.2466 23.192 12.2466" fill="#FFC233"/>
<path d="M17.0641 6.11594C16.8618 5.66583 16.5322 5.42594 16.2824 5.60401C16.0327 5.78207 15.8379 6.2767 16.5047 7.52316C16.9423 7.39553 17.3522 7.18838 17.7133 6.91229C18.1928 6.5067 17.963 6.13078 17.8706 6.07885C17.551 5.89089 17.0616 6.11594 17.0616 6.11594" fill="#F15A22"/>
<path d="M8.62987 5.09754C8.23532 5.07529 7.93815 5.22615 7.9806 5.45615C8.02306 5.68615 8.30024 6.01013 9.42897 5.99776C9.4965 5.6456 9.4965 5.284 9.42897 4.93184C9.3141 4.43722 8.96449 4.47184 8.89208 4.51636C8.64236 4.67216 8.62488 5.09754 8.62488 5.09754" fill="#DC6482"/>
<path d="M20.1024 3.06815C19.6778 2.31137 19.0435 1.9404 18.659 2.29159C18.2744 2.64277 17.9897 3.52816 19.3482 5.61301C20.0942 5.3248 20.7793 4.90124 21.3684 4.36408C22.1426 3.57762 21.6856 2.95686 21.5133 2.8802C20.9239 2.6032 20.1024 3.07063 20.1024 3.07063" fill="#D7DF23"/>
<path d="M24.2574 14.5566C24.1723 14.5588 24.0881 14.5738 24.0077 14.6012C23.4208 14.7891 23.8079 15.8699 23.9877 16.0653C24.0409 16.1407 24.11 16.2039 24.1901 16.2504C24.2703 16.2969 24.3597 16.3257 24.4522 16.3348C24.5554 16.3328 24.6548 16.2961 24.7343 16.231C24.7983 16.2866 24.8815 16.3159 24.9666 16.3126C25.0534 16.3102 25.1386 16.2891 25.2162 16.2506C25.2939 16.2122 25.3621 16.1573 25.4161 16.09C25.559 15.8572 25.6557 15.5995 25.7007 15.3307C25.7507 14.8361 25.451 14.5591 25.1289 14.5591C25.0505 14.5598 24.9731 14.5759 24.9011 14.6065C24.8291 14.637 24.7639 14.6815 24.7094 14.7372C24.5879 14.6261 24.4301 14.5621 24.2649 14.5566" fill="#F15A22"/>
<path d="M4.93129 8.81781C4.88429 8.89443 4.84974 8.97788 4.8289 9.06512C4.66908 9.65373 5.79781 9.91835 6.06001 9.87631C6.15318 9.87162 6.24423 9.8471 6.32697 9.80443C6.40971 9.76175 6.48219 9.70191 6.53947 9.629C6.59423 9.54196 6.61715 9.43894 6.6044 9.33717C6.68198 9.31276 6.74832 9.26195 6.79169 9.19373C6.83676 9.12026 6.86504 9.0379 6.87453 8.95245C6.88402 8.86699 6.8745 8.78052 6.84663 8.6991C6.72295 8.45382 6.55348 8.23396 6.34719 8.05114C5.94514 7.73952 5.55558 7.84587 5.38328 8.11049C5.29853 8.24177 5.26979 8.40096 5.30337 8.55319C5.14415 8.59476 5.00514 8.69123 4.91131 8.82523" fill="#F15A22"/>
<path d="M11.1655 7.82645C11.0844 7.86361 11.0094 7.91282 10.9433 7.97236C10.4663 8.3829 11.2704 9.24603 11.5176 9.35732C11.5978 9.40737 11.6881 9.4395 11.7821 9.45146C11.8761 9.46342 11.9717 9.45493 12.062 9.42657C12.1584 9.38315 12.2375 9.30919 12.2868 9.21635C12.3693 9.2378 12.4567 9.22992 12.534 9.19409C12.6147 9.15737 12.6862 9.10357 12.7436 9.03648C12.801 8.9694 12.8428 8.89065 12.8661 8.80581C12.9064 8.52953 12.892 8.24813 12.8237 7.97731C12.6663 7.48268 12.2743 7.35408 11.9746 7.48268C11.9016 7.51427 11.8355 7.55979 11.7803 7.61665C11.725 7.67351 11.6816 7.7406 11.6525 7.81408C11.4912 7.75586 11.3143 7.75586 11.153 7.81408" fill="#F15A22"/>
<path d="M17.0326 2C16.6131 2 16.3284 2.34871 16.1785 2.74194C15.9962 2.3685 15.6791 2.06183 15.2821 2.09398C14.7826 2.1286 14.85 2.75925 14.875 2.98183C14.9212 3.12848 15.0145 3.25616 15.1407 3.34545C15.267 3.43473 15.4192 3.48074 15.5742 3.47646C15.5742 3.47646 15.2746 3.63969 15.3545 3.90431C15.3918 4.01379 15.4691 4.10547 15.5712 4.16132C15.6734 4.21716 15.7929 4.23311 15.9064 4.20604C16.0492 4.14596 16.1672 4.03956 16.241 3.90431L16.2759 3.84001C16.2658 3.86221 16.2541 3.8837 16.241 3.90431C16.3235 4.02053 16.4418 4.10726 16.5781 4.15163C16.6935 4.17056 16.8119 4.14568 16.9095 4.08195C17.0072 4.01822 17.077 3.92034 17.105 3.80786C17.1624 3.54076 16.8553 3.39732 16.8553 3.39732C17.0094 3.39071 17.1572 3.33449 17.2762 3.2372C17.3951 3.1399 17.4788 3.00683 17.5145 2.85818C17.517 2.63065 17.532 2 17.0326 2Z" fill="#03BFD7"/>
<path d="M20.123 8.25977L17.1738 10.4015L17.5134 10.864L18.1128 10.4312V13.2011L20.5275 13.5325L21.4465 10.8937L21.9035 11.4724L22.358 11.1187L20.123 8.25977ZM19.5811 12.108C19.43 12.0869 19.2886 12.022 19.1747 11.9213C19.0608 11.8207 18.9797 11.6889 18.9415 11.5425C18.9032 11.3962 18.9097 11.242 18.96 11.0993C19.0103 10.9566 19.1022 10.8319 19.2241 10.7409C19.346 10.6499 19.4924 10.5968 19.6447 10.5882C19.7971 10.5797 19.9486 10.616 20.0801 10.6927C20.2116 10.7694 20.3172 10.883 20.3835 11.0192C20.4498 11.1553 20.4739 11.3079 20.4526 11.4575C20.4385 11.5569 20.4048 11.6526 20.3534 11.739C20.3019 11.8255 20.2338 11.9011 20.1529 11.9615C20.072 12.0219 19.9798 12.0659 19.8817 12.0911C19.7836 12.1162 19.6815 12.1219 19.5811 12.108Z" fill="#F15A22"/>
<path d="M19.394 6.94238L19.374 6.44775L19.0045 6.79152H18.977C18.7023 6.7198 18.3477 6.87808 18.3077 7.45185C18.2328 7.66325 18.1098 7.8548 17.9483 8.01173C17.7868 8.16866 17.5911 8.28678 17.3763 8.35701C17.3261 8.38963 17.2687 8.40998 17.209 8.41637C17.209 8.41637 17.5836 9.3067 18.3077 9.07422C18.4218 9.04413 18.5287 8.99197 18.6223 8.92075C18.7159 8.84953 18.7943 8.76065 18.8531 8.65926C18.9118 8.55786 18.9497 8.44595 18.9645 8.32998C18.9794 8.21401 18.9709 8.09627 18.9395 7.98357C18.9263 7.90801 18.8964 7.83625 18.8521 7.77335C18.9623 7.75344 19.064 7.70136 19.1441 7.6238C19.2242 7.54624 19.279 7.44675 19.3016 7.33808C19.482 7.2761 19.6587 7.20427 19.831 7.12292L19.394 6.94238Z" fill="#DC6482"/>
<path d="M6.68662 13.7208C6.71658 13.6565 6.97379 13.7431 7.05121 13.7901L7.1436 13.8494H7.12612C6.98628 13.8494 6.64666 13.8 6.68662 13.7184M7.06869 13.4958C7.04871 13.4711 6.98628 13.387 7.00376 13.3449C7.00844 13.3358 7.0156 13.3282 7.02443 13.323C7.03326 13.3177 7.04341 13.3151 7.0537 13.3152C7.19604 13.293 7.37334 13.3598 7.38083 13.5131C7.38119 13.5941 7.36147 13.6739 7.3234 13.7456V13.7579C7.30319 13.7367 7.2815 13.7168 7.25847 13.6986C7.19632 13.6378 7.13795 13.5734 7.08367 13.5057M8.23237 14.307C8.23237 13.889 7.88027 13.7184 7.42828 13.8519C7.51176 13.7174 7.53866 13.5558 7.5032 13.4018C7.46379 13.3363 7.40663 13.2831 7.33822 13.2481C7.26981 13.2131 7.19287 13.1978 7.11613 13.204C7.05526 13.2035 6.99521 13.2179 6.94133 13.246C6.92625 13.2536 6.91306 13.2644 6.9027 13.2777C6.89234 13.2909 6.88507 13.3063 6.8814 13.3227C6.88514 13.4149 6.92239 13.5027 6.98628 13.57C7.03095 13.6267 7.07933 13.6804 7.13112 13.7307L7.04371 13.6912C6.89388 13.6293 6.63168 13.5749 6.58173 13.706C6.53179 13.8371 7.01375 13.9212 7.18356 13.9385L6.99377 14.0498C6.82646 14.171 6.68412 14.2971 6.69161 14.4949C6.7041 14.7818 7.3209 14.8659 7.55813 14.861C7.90524 14.861 8.22738 14.6681 8.22988 14.2946" fill="#FFC233"/>
<path d="M15.0866 12.2942C14.742 11.3049 13.7706 11.1961 12.8217 11.8738C12.8566 11.6512 12.9066 11.0799 12.6244 10.7534C12.3922 10.4839 11.9102 10.474 11.5506 10.6026C11.4064 10.6532 11.2769 10.7382 11.1735 10.8499C11.1452 10.8813 11.1237 10.9181 11.1104 10.9581C11.0971 10.9981 11.0922 11.0404 11.0961 11.0823C11.1261 11.2827 11.3708 11.4632 11.5531 11.577C11.7075 11.6746 11.8685 11.7613 12.0351 11.8367L11.8228 11.8169C11.4208 11.7946 10.7565 11.8762 10.749 12.2225C10.749 12.6206 11.9427 12.3783 12.3572 12.2843L12.3397 12.2991L11.9901 12.7171C11.6905 13.1351 11.4707 13.558 11.648 14.0081C11.9127 14.6709 13.4335 14.3766 13.9854 14.1713C14.782 13.872 15.3888 13.1746 15.0866 12.2942ZM12.2598 12.1458C11.9318 12.2196 11.5972 12.2611 11.2609 12.2695C10.9863 12.2695 10.9213 12.22 10.9088 12.2027C10.8964 12.1854 10.9088 12.2027 10.9088 12.1779C10.9088 12.1136 11.1036 12.0444 11.4907 12.0444C11.698 12.0419 11.9049 12.0626 12.1075 12.1062L12.2598 12.1458ZM11.653 11.3445C11.3309 11.1318 11.2984 11.023 11.3009 10.9884C11.3034 10.9537 11.3558 10.9068 11.3983 10.8845C11.5646 10.8003 11.7484 10.7554 11.9352 10.7534C12.0685 10.7434 12.2017 10.7744 12.3165 10.8421C12.4314 10.9098 12.5223 11.011 12.577 11.1318C12.6583 11.3703 12.6839 11.624 12.6519 11.8738C12.5745 11.8342 12.502 11.7996 12.4421 11.7748L12.4146 11.7625C12.1526 11.6382 11.8983 11.4987 11.653 11.3445Z" fill="#0077C0"/>
<path d="M15.4852 20.9982C13.1878 22.2867 12.1739 21.1243 11.2949 19.9719C11.2949 19.9719 13.3476 18.8491 15.4852 20.9982Z" fill="#39B54A"/>
</svg>
